<?xml version="1.0" encoding="UTF-8"?>
<svg width="752pt" height="752pt" version="1.1" viewBox="0 0 752 752" xmlns="http://www.w3.org/2000/svg">
 <g>
  <path d="m246.51 390.8v118.39c0 6.2891 4.8086 11.098 11.098 11.098h236.79c6.2891 0 11.098-4.8086 11.098-11.098l0.003906-118.39c0-6.2891-4.8086-11.098-11.098-11.098h-236.79c-6.2891 0-11.098 4.8086-11.098 11.098zm99.895 11.098h136.89v37h-136.89zm0 59.199h136.89v37h-136.89zm-77.695-59.199h55.496v37h-55.496zm0 59.199h55.496v37h-55.496z"/>
  <path d="m368.6 142.91h-125.79c-26.641 0-48.098 21.461-48.098 48.098v369.98c0 26.641 21.461 48.098 48.098 48.098h266.39c26.641 0 48.098-21.461 48.098-48.098l-0.003906-284.89c0-2.9609-1.1094-5.5508-3.3281-7.7695l-122.09-122.09c-2.9609-3.332-7.7734-4.0703-11.84-2.5898-4.4414 1.8477-7.0312 5.918-7.0312 10.359v85.098c0 26.641 21.461 48.098 48.098 48.098h73.996v273.79c0 14.43-11.469 25.898-25.898 25.898h-266.39c-14.43 0-25.898-11.469-25.898-25.898l-0.003906-369.99c0-14.43 11.469-25.898 25.898-25.898h125.8c6.2891 0 11.098-4.8086 11.098-11.098 0.003906-6.293-4.8086-11.102-11.098-11.102z"/>
 </g>
</svg>
